<svg xmlns="http://www.w3.org/2000/svg" viewBox="0 0 100 100">
  <!-- Calvin Favicon - with white circular background -->
  
  <!-- White circular background for visibility -->
  <circle cx="50" cy="50" r="48" fill="#ffffff"/>
  
  <!-- Logo scaled down to fit inside the circle -->
  <g transform="translate(10, 90) scale(0.01333, -0.01333)">
    <!-- Black interwoven curves -->
    <path fill="#1a1a1a" d="M2815 5535 c-127 -17 -171 -27 -309 -72 -197 -63 -439 -193 -591
-317 -51 -41 -266 -242 -525 -491 -80 -77 -233 -223 -339 -325 -311 -298 -427
-466 -529 -765 -162 -474 -99 -988 176 -1445 88 -147 150 -225 317 -399 66
-68 128 -132 137 -142 193 -203 585 -609 631 -653 163 -154 344 -271 559 -360
211 -87 496 -130 708 -107 419 45 804 217 1110 496 64 59 382 359 429 406 9 8
66 62 126 119 438 413 519 507 644 755 188 376 219 847 81 1265 -77 232 -213
471 -361 635 -221 244 -957 1001 -1028 1058 -184 145 -404 256 -623 312 -162
43 -420 55 -613 30z m470 -287 c192 -37 325 -93 499 -209 85 -57 144 -109 274
-240 91 -93 169 -175 174 -183 5 -10 -40 2 -134 35 -79 28 -197 62 -263 77
-106 23 -142 26 -300 26 -160 0 -193 -3 -292 -27 -125 -29 -247 -76 -371 -143
-161 -87 -244 -154 -507 -412 -110 -109 -287 -282 -394 -387 -207 -201 -253
-254 -282 -323 -24 -55 -24 -90 0 -184 21 -80 109 -269 129 -276 8 -2 12 12
12 48 0 53 34 170 72 243 29 59 77 113 224 258 71 69 224 218 339 331 304 297
332 324 411 378 145 100 293 165 468 205 83 19 273 22 366 5 427 -75 881 -335
1193 -685 161 -180 254 -346 309 -554 29 -107 31 -129 32 -281 0 -146 -3 -179
-28 -285 -47 -204 -135 -388 -262 -551 -57 -73 -359 -374 -385 -383 -8 -2 -8
3 0 17 28 52 95 260 122 377 24 102 31 163 36 285 8 250 -29 424 -142 654
-111 227 -149 272 -639 762 -379 379 -449 445 -500 470 l-59 28 -78 -16 c-100
-21 -329 -124 -329 -149 0 -3 31 -9 70 -12 83 -7 217 -58 287 -110 85 -62 825
-816 882 -897 180 -258 262 -534 232 -783 -41 -339 -215 -728 -458 -1027 -70
-87 -234 -250 -310 -309 -201 -157 -428 -254 -661 -283 -243 -30 -579 58 -827
217 -122 78 -214 163 -450 412 l-49 53 115 -45 c209 -80 468 -135 636 -135
283 0 637 135 881 337 73 61 470 442 763 733 198 197 223 255 179 425 -20 78
-105 255 -126 262 -8 3 -13 -23 -16 -76 -4 -69 -11 -92 -50 -173 -27 -56 -69
-120 -104 -161 -76 -87 -747 -736 -833 -805 -130 -105 -359 -216 -496 -241
-292 -54 -639 20 -990 211 -507 277 -830 656 -921 1080 -71 336 31 738 265
1043 42 55 382 397 388 391 2 -1 -13 -47 -33 -102 -53 -146 -61 -173 -91 -318
-22 -112 -26 -156 -26 -301 -1 -149 3 -185 27 -290 42 -189 107 -340 217 -506
83 -125 80 -122 547 -592 376 -378 411 -410 478 -444 85 -41 102 -41 238 6 85
30 236 107 236 121 0 4 -39 12 -87 19 -68 8 -107 20 -182 57 l-96 46 -334 332
c-378 375 -502 508 -564 604 -160 247 -230 500 -207 745 12 121 70 343 125
476 113 276 284 531 491 733 162 158 299 254 464 325 226 98 447 120 695 71z"/>
    <!-- Orange center circle -->
    <path fill="#e8854a" d="M2841 3544 c-192 -51 -355 -216 -406 -410 -21 -80 -19 -204 3 -286
52 -185 214 -345 397 -393 70 -18 202 -20 277 -4 189 41 362 210 413 405 8 32
15 97 15 145 0 256 -175 478 -427 544 -71 19 -201 18 -272 -1z"/>
  </g>
</svg>
